<svg xmlns="http://www.w3.org/2000/svg" data-name="Layer 1" viewBox="0 0 512 512"><path fill="#1e1f27" d="M289.11719,54.66016l-16.377-2.37989L265.416,37.43945V37.439a10.50108,10.50108,0,0,0-18.832.00049l-7.32421,14.84082-16.377,2.3794a10.50048,10.50048,0,0,0-5.82031,17.91015l11.85156,11.55176-2.79687,16.31006A10.48634,10.48634,0,0,0,241.35156,111.502L256,103.80078l14.64844,7.70117a10.4995,10.4995,0,0,0,15.23437-11.06884l-2.79687-16.31153,11.85254-11.55224a10.50035,10.50035,0,0,0-5.82129-17.90918ZM270.91992,75.03271a10.49564,10.49564,0,0,0-3.01758,9.29249l1.65528,9.65673-8.6709-4.55908a10.5012,10.5012,0,0,0-9.77344,0l-8.6709,4.55908,1.65528-9.65576a10.4973,10.4973,0,0,0-3.01856-9.29443l-7.0166-6.83887,9.69629-1.40869a10.49586,10.49586,0,0,0,7.90527-5.74365L256,52.25439l4.335,8.7837a10.49627,10.49627,0,0,0,7.90723,5.74609l9.69531,1.40869ZM183.00781,54.66016l-16.37695-2.37989-7.32422-14.84082V37.439a10.50107,10.50107,0,0,0-18.832.00049l-7.32422,14.84082-16.37695,2.3794a10.50011,10.50011,0,0,0-5.81934,17.91015l11.85059,11.55127-2.79688,16.31055A10.48635,10.48635,0,0,0,135.24219,111.502l14.64843-7.70117,14.64844,7.70117a10.4995,10.4995,0,0,0,15.23438-11.06884l-2.79688-16.311L188.8291,72.56934a10.50034,10.50034,0,0,0-5.82129-17.90918ZM164.81152,75.03271A10.49713,10.49713,0,0,0,161.793,84.3252l1.65527,9.65673-8.6709-4.55908a10.49641,10.49641,0,0,0-9.77246,0L136.333,93.98193l1.65527-9.65576a10.49732,10.49732,0,0,0-3.01855-9.29443l-7.01563-6.83887,9.69531-1.40869a10.49586,10.49586,0,0,0,7.90528-5.74365l4.33593-8.78614,4.3379,8.78956a10.50024,10.50024,0,0,0,7.90429,5.74023l9.69531,1.40918ZM372.5,467h63A16.51929,16.51929,0,0,0,452,450.5v-69A16.51929,16.51929,0,0,0,435.5,365h-63A16.51929,16.51929,0,0,0,356,381.5v69A16.51929,16.51929,0,0,0,372.5,467Zm39-87h24a1.50164,1.50164,0,0,1,1.5,1.5v27H411.5Zm0,43.5H437v27a1.50164,1.50164,0,0,1-1.5,1.5h-24Zm-40.5-42a1.50164,1.50164,0,0,1,1.5-1.5h24v28.5H371Zm0,42h25.5V452h-24a1.50164,1.50164,0,0,1-1.5-1.5ZM497.5,203A14.51669,14.51669,0,0,0,512,188.5v-16A14.51669,14.51669,0,0,0,497.5,158H405.30469V143H415.5A22.52554,22.52554,0,0,0,438,120.5v-98A22.52554,22.52554,0,0,0,415.5,0H96.5A22.52554,22.52554,0,0,0,74,22.5v98A22.52554,22.52554,0,0,0,96.5,143h10.19531v15H14.5A14.51669,14.51669,0,0,0,0,172.5v16A14.51669,14.51669,0,0,0,14.5,203H15V497H7.5a7.5,7.5,0,0,0,0,15h497a7.5,7.5,0,0,0,0-15H497V203Zm-401-75a7.5082,7.5082,0,0,1-7.5-7.5v-98A7.5082,7.5082,0,0,1,96.5,15h319a7.5082,7.5082,0,0,1,7.5,7.5v98a7.5082,7.5082,0,0,1-7.5,7.5Zm293.80469,15v15h-18V143Zm-33,0v15H154.69531V143Zm-217.60938,0v15h-18V143ZM302.5,497h-93V387.5A7.5082,7.5082,0,0,1,217,380h78a7.5082,7.5082,0,0,1,7.5,7.5ZM482,497H317.5V387.5A22.52586,22.52586,0,0,0,295,365H217a22.52586,22.52586,0,0,0-22.5,22.5V497H30V203H482ZM15,188V173H497v15ZM224.5,335h63A16.51929,16.51929,0,0,0,304,318.5v-69A16.519,16.519,0,0,0,287.5,233h-63A16.519,16.519,0,0,0,208,249.5v69A16.51929,16.51929,0,0,0,224.5,335Zm39-87h24a1.50164,1.50164,0,0,1,1.5,1.5v27H263.5Zm0,43.5H289v27a1.50164,1.50164,0,0,1-1.5,1.5h-24Zm-40.5-42a1.50164,1.50164,0,0,1,1.5-1.5h24v28.5H223Zm0,42h25.5V320h-24a1.50164,1.50164,0,0,1-1.5-1.5ZM76.5,335h63A16.51929,16.51929,0,0,0,156,318.5v-69A16.519,16.519,0,0,0,139.5,233h-63A16.519,16.519,0,0,0,60,249.5v69A16.51929,16.51929,0,0,0,76.5,335Zm39-87h24a1.50164,1.50164,0,0,1,1.5,1.5v27H115.5Zm0,43.5H141v27a1.50164,1.50164,0,0,1-1.5,1.5h-24ZM75,249.5a1.50164,1.50164,0,0,1,1.5-1.5h24v28.5H75Zm0,42h25.5V320h-24a1.50164,1.50164,0,0,1-1.5-1.5ZM372.5,335h63A16.51929,16.51929,0,0,0,452,318.5v-69A16.519,16.519,0,0,0,435.5,233h-63A16.519,16.519,0,0,0,356,249.5v69A16.51929,16.51929,0,0,0,372.5,335Zm39-87h24a1.50164,1.50164,0,0,1,1.5,1.5v27H411.5Zm0,43.5H437v27a1.50164,1.50164,0,0,1-1.5,1.5h-24Zm-40.5-42a1.50164,1.50164,0,0,1,1.5-1.5h24v28.5H371Zm0,42h25.5V320h-24a1.50164,1.50164,0,0,1-1.5-1.5ZM76.5,467h63A16.51929,16.51929,0,0,0,156,450.5v-69A16.51929,16.51929,0,0,0,139.5,365h-63A16.51929,16.51929,0,0,0,60,381.5v69A16.51929,16.51929,0,0,0,76.5,467Zm39-87h24a1.50164,1.50164,0,0,1,1.5,1.5v27H115.5Zm0,43.5H141v27a1.50164,1.50164,0,0,1-1.5,1.5h-24ZM75,381.5a1.50164,1.50164,0,0,1,1.5-1.5h24v28.5H75Zm0,42h25.5V452h-24a1.50164,1.50164,0,0,1-1.5-1.5ZM395.22656,55.16016l-16.377-2.37989-7.32422-14.84082V37.939a10.50107,10.50107,0,0,0-18.832.00049l-7.32422,14.84082-16.377,2.3794a10.50047,10.50047,0,0,0-5.82031,17.91015l11.85156,11.55225-2.79688,16.30957A10.48635,10.48635,0,0,0,347.46094,112.002l14.64844-7.70117,14.64843,7.70117a10.4995,10.4995,0,0,0,15.23438-11.06884l-2.79688-16.312,11.84961-11.55078a10.49937,10.49937,0,0,0-5.81836-17.91015ZM377.0293,75.53271a10.49564,10.49564,0,0,0-3.01758,9.29249l1.65527,9.65673-8.67187-4.55908a10.50114,10.50114,0,0,0-9.77246,0l-8.6709,4.55908,1.65527-9.65576a10.49878,10.49878,0,0,0-3.01953-9.29443l-7.01562-6.83838,9.69726-1.40918a10.503,10.503,0,0,0,7.9043-5.74365l4.33594-8.78614,4.335,8.7837a10.49624,10.49624,0,0,0,7.90722,5.74609l9.69434,1.40869Z"/></svg>