<svg xmlns="http://www.w3.org/2000/svg" enable-background="new 0 0 512 512" viewBox="0 0 512 512"><path d="M459.204,0.024h-225.28c-56.502,0-102.465,45.964-102.465,102.465v210.281c0,24.784,32.802,33.471,45.136,12.061
				l39.777-69.172h190.182c56.501,0,102.465-45.964,102.465-102.465V49.839C509.019,22.374,486.67,0.024,459.204,0.024z
				 M493.02,153.195c0,47.674-38.793,86.467-86.467,86.467H211.747c-2.859,0-5.507,1.531-6.937,4.007l-42.089,73.187
				c-4.175,7.281-15.264,4.306-15.264-4.085V102.49c0-47.674,38.793-86.467,86.467-86.467h225.28
				c18.646,0,33.817,15.17,33.817,33.817V153.195z"/><path d="M428.051 71.142H212.427c-4.421 0-7.999 3.578-7.999 7.999 0 4.421 3.578 7.999 7.999 7.999h215.624c4.421 0 7.999-3.578 7.999-7.999C436.05 74.719 432.473 71.142 428.051 71.142zM428.051 119.847H212.427c-4.421 0-7.999 3.578-7.999 7.999s3.578 7.999 7.999 7.999h215.624c4.421 0 7.999-3.578 7.999-7.999S432.473 119.847 428.051 119.847zM372.307 168.545H212.427c-4.421 0-7.999 3.578-7.999 7.999 0 4.421 3.578 7.999 7.999 7.999h159.881c4.421 0 7.999-3.578 7.999-7.999C380.306 172.123 376.729 168.545 372.307 168.545zM474.273 290.687H330.179c-37.722 0-68.414 30.692-68.414 68.414v134.501c0 18.774 24.877 25.43 34.246 9.147l24.607-42.792h119.979c37.73 0 68.422-30.692 68.422-68.414v-66.118C509.019 306.272 493.435 290.687 474.273 290.687zM493.02 391.543c0 28.903-23.521 52.416-52.424 52.416H315.993c-2.859 0-5.507 1.531-6.937 4.015l-26.919 46.799c-1.184 2.115-4.375 1.283-4.375-1.172V359.102c0-28.903 23.513-52.416 52.416-52.416h144.093c10.335 0 18.748 8.405 18.748 18.74V391.543zM111.516 14.359H10.98c-4.421 0-7.999 3.578-7.999 7.999s3.578 7.999 7.999 7.999h100.536c4.421 0 7.999-3.578 7.999-7.999S115.937 14.359 111.516 14.359zM111.516 68.829H38.384c-4.421 0-7.999 3.578-7.999 7.999 0 4.421 3.578 7.999 7.999 7.999h73.132c4.421 0 7.999-3.578 7.999-7.999C119.515 72.407 115.937 68.829 111.516 68.829zM111.516 123.3H58.311c-4.421 0-7.999 3.578-7.999 7.999 0 4.421 3.578 7.999 7.999 7.999h53.205c4.421 0 7.999-3.578 7.999-7.999C119.515 126.878 115.937 123.3 111.516 123.3zM111.516 177.77H83.355c-4.421 0-7.999 3.578-7.999 7.999s3.578 7.999 7.999 7.999h28.161c4.421 0 7.999-3.578 7.999-7.999S115.937 177.77 111.516 177.77z"/><path d="M342.6 367.32h-4.64c-4.421 0-7.999 3.578-7.999 7.999s3.578 7.999 7.999 7.999h4.64c4.421 0 7.999-3.578 7.999-7.999S347.021 367.32 342.6 367.32zM387.704 367.32h-4.632c-4.421 0-7.999 3.578-7.999 7.999s3.578 7.999 7.999 7.999h4.632c4.421 0 7.999-3.578 7.999-7.999S392.125 367.32 387.704 367.32zM432.816 367.32h-4.632c-4.421 0-7.999 3.578-7.999 7.999s3.578 7.999 7.999 7.999h4.632c4.421 0 7.999-3.578 7.999-7.999S437.238 367.32 432.816 367.32z"/></svg>